<?xml version="1.0" encoding="UTF-8" standalone="no"?>
<!DOCTYPE svg PUBLIC "-//W3C//DTD SVG 1.1//EN"
 "http://www.w3.org/Graphics/SVG/1.1/DTD/svg11.dtd">
<!-- Generated by graphviz version 2.49.3 (0)
 -->
<!-- Title: finite_state_machine Pages: 1 -->
<svg width="576pt" height="95pt"
 viewBox="0.00 0.00 576.00 95.09" xmlns="http://www.w3.org/2000/svg" xmlns:xlink="http://www.w3.org/1999/xlink">
<g id="graph0" class="graph" transform="scale(0.68 0.68) rotate(0) translate(4 136)">
<title>finite_state_machine</title>
<polygon fill="white" stroke="transparent" points="-4,4 -4,-136 844,-136 844,4 -4,4"/>
<!-- 0 -->
<g id="node1" class="node">
<title>0</title>
<ellipse fill="none" stroke="black" cx="128" cy="-60" rx="18" ry="18"/>
<text text-anchor="middle" x="128" y="-56.3" font-family="Times,serif" font-size="14.00">(</text>
<text text-anchor="middle" x="106.5" y="-30.8" font-family="Times,serif" font-size="14.00">0</text>
</g>
<!-- 1 -->
<g id="node2" class="node">
<title>1</title>
<ellipse fill="none" stroke="black" cx="200" cy="-60" rx="18" ry="18"/>
<text text-anchor="middle" x="200" y="-56.3" font-family="Times,serif" font-size="14.00">(</text>
<text text-anchor="middle" x="178.5" y="-30.8" font-family="Times,serif" font-size="14.00">1</text>
</g>
<!-- 0&#45;&gt;1 -->
<g id="edge1" class="edge">
<title>0&#45;&gt;1</title>
<path fill="none" stroke="red" d="M146.3,-60C154.02,-60 163.29,-60 171.89,-60"/>
<polygon fill="red" stroke="red" points="171.9,-63.5 181.9,-60 171.9,-56.5 171.9,-63.5"/>
</g>
<!-- 2 -->
<g id="node3" class="node">
<title>2</title>
<ellipse fill="none" stroke="black" cx="272" cy="-87" rx="18" ry="18"/>
<text text-anchor="middle" x="272" y="-83.3" font-family="Times,serif" font-size="14.00">A</text>
<text text-anchor="middle" x="250.5" y="-57.8" font-family="Times,serif" font-size="14.00">2</text>
</g>
<!-- 1&#45;&gt;2 -->
<g id="edge2" class="edge">
<title>1&#45;&gt;2</title>
<path fill="none" stroke="red" d="M217.24,-66.26C225.63,-69.5 236.07,-73.53 245.5,-77.17"/>
<polygon fill="red" stroke="red" points="244.26,-80.44 254.85,-80.77 246.78,-73.91 244.26,-80.44"/>
</g>
<!-- 6 -->
<g id="node7" class="node">
<title>6</title>
<ellipse fill="none" stroke="black" cx="272" cy="-33" rx="18" ry="18"/>
<text text-anchor="middle" x="272" y="-29.3" font-family="Times,serif" font-size="14.00">A</text>
<text text-anchor="middle" x="250.5" y="-3.8" font-family="Times,serif" font-size="14.00">6</text>
</g>
<!-- 1&#45;&gt;6 -->
<g id="edge8" class="edge">
<title>1&#45;&gt;6</title>
<path fill="none" stroke="red" d="M217.24,-53.74C225.63,-50.5 236.07,-46.47 245.5,-42.83"/>
<polygon fill="red" stroke="red" points="246.78,-46.09 254.85,-39.23 244.26,-39.56 246.78,-46.09"/>
</g>
<!-- 3 -->
<g id="node4" class="node">
<title>3</title>
<ellipse fill="none" stroke="black" cx="344" cy="-87" rx="18" ry="18"/>
<text text-anchor="middle" x="344" y="-83.3" font-family="Times,serif" font-size="14.00">*</text>
<text text-anchor="middle" x="322.5" y="-57.8" font-family="Times,serif" font-size="14.00">3</text>
</g>
<!-- 2&#45;&gt;3 -->
<g id="edge3" class="edge">
<title>2&#45;&gt;3</title>
<path fill="none" stroke="red" d="M286.5,-76.08C295.89,-73.47 308.66,-72.84 319.68,-74.19"/>
<polygon fill="red" stroke="red" points="319.06,-77.64 329.54,-76.1 320.39,-70.76 319.06,-77.64"/>
</g>
<!-- 2&#45;&gt;3 -->
<g id="edge4" class="edge">
<title>2&#45;&gt;3</title>
<path fill="none" stroke="black" d="M290.3,-87C298.02,-87 307.29,-87 315.89,-87"/>
<polygon fill="black" stroke="black" points="315.9,-90.5 325.9,-87 315.9,-83.5 315.9,-90.5"/>
</g>
<!-- 3&#45;&gt;2 -->
<g id="edge5" class="edge">
<title>3&#45;&gt;2</title>
<path fill="none" stroke="red" d="M329.54,-97.9C320.16,-100.52 307.4,-101.16 296.37,-99.81"/>
<polygon fill="red" stroke="red" points="296.98,-96.37 286.5,-97.92 295.66,-103.24 296.98,-96.37"/>
</g>
<!-- 4 -->
<g id="node5" class="node">
<title>4</title>
<ellipse fill="none" stroke="black" cx="416" cy="-87" rx="18" ry="18"/>
<text text-anchor="middle" x="416" y="-83.3" font-family="Times,serif" font-size="14.00">B</text>
<text text-anchor="middle" x="394.5" y="-57.8" font-family="Times,serif" font-size="14.00">4</text>
</g>
<!-- 3&#45;&gt;4 -->
<g id="edge6" class="edge">
<title>3&#45;&gt;4</title>
<path fill="none" stroke="red" d="M362.3,-87C370.02,-87 379.29,-87 387.89,-87"/>
<polygon fill="red" stroke="red" points="387.9,-90.5 397.9,-87 387.9,-83.5 387.9,-90.5"/>
</g>
<!-- 5 -->
<g id="node6" class="node">
<title>5</title>
<ellipse fill="none" stroke="black" cx="488" cy="-85" rx="18" ry="18"/>
<text text-anchor="middle" x="488" y="-81.3" font-family="Times,serif" font-size="14.00">|</text>
<text text-anchor="middle" x="466.5" y="-55.8" font-family="Times,serif" font-size="14.00">5</text>
</g>
<!-- 4&#45;&gt;5 -->
<g id="edge7" class="edge">
<title>4&#45;&gt;5</title>
<path fill="none" stroke="black" d="M434.3,-86.51C442.02,-86.29 451.29,-86.02 459.89,-85.77"/>
<polygon fill="black" stroke="black" points="460,-89.27 469.9,-85.49 459.8,-82.28 460,-89.27"/>
</g>
<!-- 8 -->
<g id="node9" class="node">
<title>8</title>
<ellipse fill="none" stroke="black" cx="560" cy="-60" rx="18" ry="18"/>
<text text-anchor="middle" x="560" y="-56.3" font-family="Times,serif" font-size="14.00">)</text>
<text text-anchor="middle" x="538.5" y="-30.8" font-family="Times,serif" font-size="14.00">8</text>
</g>
<!-- 5&#45;&gt;8 -->
<g id="edge11" class="edge">
<title>5&#45;&gt;8</title>
<path fill="none" stroke="red" d="M505.24,-79.2C513.54,-76.24 523.85,-72.55 533.21,-69.21"/>
<polygon fill="red" stroke="red" points="534.61,-72.43 542.85,-65.77 532.26,-65.83 534.61,-72.43"/>
</g>
<!-- 7 -->
<g id="node8" class="node">
<title>7</title>
<ellipse fill="none" stroke="black" cx="416" cy="-33" rx="18" ry="18"/>
<text text-anchor="middle" x="416" y="-29.3" font-family="Times,serif" font-size="14.00">C</text>
<text text-anchor="middle" x="394.5" y="-3.8" font-family="Times,serif" font-size="14.00">7</text>
</g>
<!-- 6&#45;&gt;7 -->
<g id="edge9" class="edge">
<title>6&#45;&gt;7</title>
<path fill="none" stroke="black" d="M290.13,-33C314.33,-33 358.79,-33 387.61,-33"/>
<polygon fill="black" stroke="black" points="387.81,-36.5 397.81,-33 387.81,-29.5 387.81,-36.5"/>
</g>
<!-- 7&#45;&gt;8 -->
<g id="edge10" class="edge">
<title>7&#45;&gt;8</title>
<path fill="none" stroke="black" d="M433.85,-36.2C458.19,-40.83 503.43,-49.43 532.33,-54.93"/>
<polygon fill="black" stroke="black" points="531.7,-58.37 542.18,-56.8 533,-51.49 531.7,-58.37"/>
</g>
<!-- 9 -->
<g id="node10" class="node">
<title>9</title>
<ellipse fill="none" stroke="black" cx="632" cy="-60" rx="18" ry="18"/>
<text text-anchor="middle" x="632" y="-56.3" font-family="Times,serif" font-size="14.00">D</text>
<text text-anchor="middle" x="610.5" y="-30.8" font-family="Times,serif" font-size="14.00">9</text>
</g>
<!-- 8&#45;&gt;9 -->
<g id="edge12" class="edge">
<title>8&#45;&gt;9</title>
<path fill="none" stroke="red" d="M578.3,-60C586.02,-60 595.29,-60 603.89,-60"/>
<polygon fill="red" stroke="red" points="603.9,-63.5 613.9,-60 603.9,-56.5 603.9,-63.5"/>
</g>
<!-- 10 -->
<g id="node11" class="node">
<title>10</title>
<ellipse fill="none" stroke="black" cx="723" cy="-60" rx="18" ry="18"/>
<text text-anchor="middle" x="723" y="-56.3" font-family="Times,serif" font-size="14.00">)</text>
<text text-anchor="middle" x="698" y="-30.8" font-family="Times,serif" font-size="14.00">10</text>
</g>
<!-- 9&#45;&gt;10 -->
<g id="edge13" class="edge">
<title>9&#45;&gt;10</title>
<path fill="none" stroke="black" d="M650.16,-60C662.72,-60 680.02,-60 694.5,-60"/>
<polygon fill="black" stroke="black" points="694.89,-63.5 704.89,-60 694.89,-56.5 694.89,-63.5"/>
</g>
<!-- 11 -->
<g id="node12" class="node">
<title>11</title>
<ellipse fill="none" stroke="black" cx="818" cy="-60" rx="18" ry="18"/>
<ellipse fill="none" stroke="black" cx="818" cy="-60" rx="22" ry="22"/>
<text text-anchor="middle" x="789" y="-26.8" font-family="Times,serif" font-size="14.00">11</text>
</g>
<!-- 10&#45;&gt;11 -->
<g id="edge14" class="edge">
<title>10&#45;&gt;11</title>
<path fill="none" stroke="red" d="M741.06,-60C753.46,-60 770.62,-60 785.49,-60"/>
<polygon fill="red" stroke="red" points="785.81,-63.5 795.81,-60 785.81,-56.5 785.81,-63.5"/>
</g>
<!-- start -->
<g id="node13" class="node">
<title>start</title>
<text text-anchor="middle" x="37" y="-56.3" font-family="Times,serif" font-size="14.00">开始状态</text>
</g>
<!-- start&#45;&gt;0 -->
<g id="edge15" class="edge">
<title>start&#45;&gt;0</title>
<path fill="none" stroke="black" d="M74.2,-60C82.67,-60 91.56,-60 99.57,-60"/>
<polygon fill="black" stroke="black" points="99.84,-63.5 109.84,-60 99.84,-56.5 99.84,-63.5"/>
</g>
<!-- end -->
<g id="node14" class="node">
<title>end</title>
<text text-anchor="middle" x="723" y="-110.3" font-family="Times,serif" font-size="14.00">结束状态</text>
</g>
<!-- end&#45;&gt;11 -->
<g id="edge16" class="edge">
<title>end&#45;&gt;11</title>
<path fill="none" stroke="black" d="M755.23,-95.87C766.33,-89.42 778.74,-82.22 789.5,-75.97"/>
<polygon fill="black" stroke="black" points="791.58,-78.81 798.47,-70.76 788.06,-72.76 791.58,-78.81"/>
</g>
</g>
</svg>
