<?xml version="1.0" encoding="UTF-8" standalone="no"?>
<!DOCTYPE svg PUBLIC "-//W3C//DTD SVG 1.1//EN"
 "http://www.w3.org/Graphics/SVG/1.1/DTD/svg11.dtd">
<!-- Generated by graphviz version 2.49.3 (0)
 -->
<!-- Title: finite_state_machine Pages: 1 -->
<svg width="576pt" height="126pt"
 viewBox="0.00 0.00 576.00 125.75" xmlns="http://www.w3.org/2000/svg" xmlns:xlink="http://www.w3.org/1999/xlink">
<g id="graph0" class="graph" transform="scale(0.68 0.68) rotate(0) translate(4 182)">
<title>finite_state_machine</title>
<polygon fill="white" stroke="transparent" points="-4,4 -4,-182 848,-182 848,4 -4,4"/>
<!-- 1 -->
<g id="node1" class="node">
<title>1</title>
<ellipse fill="none" stroke="black" cx="303" cy="-113" rx="18" ry="18"/>
<ellipse fill="none" stroke="black" cx="303" cy="-113" rx="22" ry="22"/>
<text text-anchor="middle" x="303" y="-109.3" font-family="Times,serif" font-size="14.00">1</text>
</g>
<!-- 1&#45;&gt;1 -->
<g id="edge6" class="edge">
<title>1&#45;&gt;1</title>
<path fill="none" stroke="black" d="M293.29,-132.76C291.64,-143.35 294.88,-153 303,-153 308.33,-153 311.55,-148.84 312.68,-142.99"/>
<polygon fill="black" stroke="black" points="316.18,-142.77 312.71,-132.76 309.18,-142.75 316.18,-142.77"/>
<text text-anchor="middle" x="303" y="-156.8" font-family="Times,serif" font-size="14.00">数字</text>
</g>
<!-- 4 -->
<g id="node2" class="node">
<title>4</title>
<ellipse fill="none" stroke="black" cx="412" cy="-22" rx="18" ry="18"/>
<ellipse fill="none" stroke="black" cx="412" cy="-22" rx="22" ry="22"/>
<text text-anchor="middle" x="412" y="-18.3" font-family="Times,serif" font-size="14.00">4</text>
</g>
<!-- 1&#45;&gt;4 -->
<g id="edge7" class="edge">
<title>1&#45;&gt;4</title>
<path fill="none" stroke="black" d="M320.25,-99.18C338.01,-84.08 366.62,-59.74 386.97,-42.43"/>
<polygon fill="black" stroke="black" points="389.25,-45.1 394.6,-35.95 384.71,-39.76 389.25,-45.1"/>
<text text-anchor="middle" x="357.5" y="-81.8" font-family="Times,serif" font-size="14.00">点</text>
</g>
<!-- 8 -->
<g id="node4" class="node">
<title>8</title>
<ellipse fill="none" stroke="black" cx="822" cy="-73" rx="18" ry="18"/>
<ellipse fill="none" stroke="black" cx="822" cy="-73" rx="22" ry="22"/>
<text text-anchor="middle" x="822" y="-69.3" font-family="Times,serif" font-size="14.00">8</text>
</g>
<!-- 1&#45;&gt;8 -->
<g id="edge9" class="edge">
<title>1&#45;&gt;8</title>
<path fill="none" stroke="black" d="M320.67,-126.4C340.82,-141.21 376.35,-163 411,-163 411,-163 411,-163 714,-163 753.47,-163 785.97,-126.68 804.43,-100.19"/>
<polygon fill="black" stroke="black" points="807.49,-101.91 810.14,-91.65 801.67,-98.02 807.49,-101.91"/>
<text text-anchor="middle" x="557.5" y="-166.8" font-family="Times,serif" font-size="14.00">空格</text>
</g>
<!-- 5 -->
<g id="node9" class="node">
<title>5</title>
<ellipse fill="none" stroke="black" cx="507" cy="-99" rx="18" ry="18"/>
<text text-anchor="middle" x="507" y="-95.3" font-family="Times,serif" font-size="14.00">5</text>
</g>
<!-- 1&#45;&gt;5 -->
<g id="edge8" class="edge">
<title>1&#45;&gt;5</title>
<path fill="none" stroke="black" d="M325.24,-111.53C362.15,-108.97 438.1,-103.71 478.81,-100.88"/>
<polygon fill="black" stroke="black" points="479.09,-104.37 488.82,-100.19 478.61,-97.39 479.09,-104.37"/>
<text text-anchor="middle" x="412" y="-109.8" font-family="Times,serif" font-size="14.00">e/E</text>
</g>
<!-- 4&#45;&gt;4 -->
<g id="edge13" class="edge">
<title>4&#45;&gt;4</title>
<path fill="none" stroke="black" d="M403.27,-42.58C402.06,-52.84 404.97,-62 412,-62 416.5,-62 419.32,-58.24 420.44,-52.84"/>
<polygon fill="black" stroke="black" points="423.95,-52.68 420.73,-42.58 416.95,-52.48 423.95,-52.68"/>
<text text-anchor="middle" x="412" y="-65.8" font-family="Times,serif" font-size="14.00">数字</text>
</g>
<!-- 4&#45;&gt;8 -->
<g id="edge15" class="edge">
<title>4&#45;&gt;8</title>
<path fill="none" stroke="black" d="M434.02,-19.51C452.85,-17.5 481.23,-15 506,-15 506,-15 506,-15 714,-15 745.76,-15 777.11,-34.99 797.58,-51.5"/>
<polygon fill="black" stroke="black" points="795.49,-54.31 805.4,-58.06 799.99,-48.95 795.49,-54.31"/>
<text text-anchor="middle" x="608" y="-18.8" font-family="Times,serif" font-size="14.00">空格</text>
</g>
<!-- 4&#45;&gt;5 -->
<g id="edge14" class="edge">
<title>4&#45;&gt;5</title>
<path fill="none" stroke="black" d="M429.63,-35.77C444.93,-48.44 467.72,-67.31 484.43,-81.14"/>
<polygon fill="black" stroke="black" points="482.6,-84.17 492.53,-87.85 487.06,-78.78 482.6,-84.17"/>
<text text-anchor="middle" x="461.5" y="-72.8" font-family="Times,serif" font-size="14.00">e/E</text>
</g>
<!-- 7 -->
<g id="node3" class="node">
<title>7</title>
<ellipse fill="none" stroke="black" cx="713" cy="-73" rx="18" ry="18"/>
<ellipse fill="none" stroke="black" cx="713" cy="-73" rx="22" ry="22"/>
<text text-anchor="middle" x="713" y="-69.3" font-family="Times,serif" font-size="14.00">7</text>
</g>
<!-- 7&#45;&gt;7 -->
<g id="edge19" class="edge">
<title>7&#45;&gt;7</title>
<path fill="none" stroke="black" d="M703.29,-92.76C701.64,-103.35 704.88,-113 713,-113 718.33,-113 721.55,-108.84 722.68,-102.99"/>
<polygon fill="black" stroke="black" points="726.18,-102.77 722.71,-92.76 719.18,-102.75 726.18,-102.77"/>
<text text-anchor="middle" x="713" y="-116.8" font-family="Times,serif" font-size="14.00">数字</text>
</g>
<!-- 7&#45;&gt;8 -->
<g id="edge20" class="edge">
<title>7&#45;&gt;8</title>
<path fill="none" stroke="black" d="M735.14,-73C750.67,-73 772.04,-73 789.57,-73"/>
<polygon fill="black" stroke="black" points="789.9,-76.5 799.9,-73 789.9,-69.5 789.9,-76.5"/>
<text text-anchor="middle" x="767.5" y="-76.8" font-family="Times,serif" font-size="14.00">空格</text>
</g>
<!-- 8&#45;&gt;8 -->
<g id="edge21" class="edge">
<title>8&#45;&gt;8</title>
<path fill="none" stroke="black" d="M812.29,-92.76C810.64,-103.35 813.88,-113 822,-113 827.33,-113 830.55,-108.84 831.68,-102.99"/>
<polygon fill="black" stroke="black" points="835.18,-102.77 831.71,-92.76 828.18,-102.75 835.18,-102.77"/>
<text text-anchor="middle" x="822" y="-116.8" font-family="Times,serif" font-size="14.00">空格</text>
</g>
<!-- start -->
<g id="node5" class="node">
<title>start</title>
<text text-anchor="middle" x="27" y="-62.3" font-family="Times,serif" font-size="14.00">start</text>
</g>
<!-- 0 -->
<g id="node6" class="node">
<title>0</title>
<ellipse fill="none" stroke="black" cx="109" cy="-66" rx="18" ry="18"/>
<text text-anchor="middle" x="109" y="-62.3" font-family="Times,serif" font-size="14.00">0</text>
</g>
<!-- start&#45;&gt;0 -->
<g id="edge1" class="edge">
<title>start&#45;&gt;0</title>
<path fill="none" stroke="black" d="M54.19,-66C62.65,-66 72.05,-66 80.6,-66"/>
<polygon fill="black" stroke="black" points="80.83,-69.5 90.83,-66 80.83,-62.5 80.83,-69.5"/>
</g>
<!-- 0&#45;&gt;1 -->
<g id="edge3" class="edge">
<title>0&#45;&gt;1</title>
<path fill="none" stroke="black" d="M124.57,-75.04C130.7,-78.54 138.02,-82.34 145,-85 186.83,-100.96 238.47,-107.93 270.82,-110.9"/>
<polygon fill="black" stroke="black" points="270.76,-114.41 281.02,-111.76 271.35,-107.43 270.76,-114.41"/>
<text text-anchor="middle" x="198" y="-106.8" font-family="Times,serif" font-size="14.00">数字</text>
</g>
<!-- 0&#45;&gt;0 -->
<g id="edge2" class="edge">
<title>0&#45;&gt;0</title>
<path fill="none" stroke="black" d="M102.62,-83.04C101.32,-92.86 103.45,-102 109,-102 112.47,-102 114.6,-98.43 115.4,-93.35"/>
<polygon fill="black" stroke="black" points="118.9,-93.03 115.38,-83.04 111.9,-93.04 118.9,-93.03"/>
<text text-anchor="middle" x="109" y="-105.8" font-family="Times,serif" font-size="14.00">空格</text>
</g>
<!-- 2 -->
<g id="node7" class="node">
<title>2</title>
<ellipse fill="none" stroke="black" cx="303" cy="-22" rx="18" ry="18"/>
<text text-anchor="middle" x="303" y="-18.3" font-family="Times,serif" font-size="14.00">2</text>
</g>
<!-- 0&#45;&gt;2 -->
<g id="edge4" class="edge">
<title>0&#45;&gt;2</title>
<path fill="none" stroke="black" d="M123.46,-54.95C136.85,-44.71 158.47,-30.15 180,-24 211.58,-14.97 249.66,-16.15 274.78,-18.48"/>
<polygon fill="black" stroke="black" points="274.71,-21.99 285.02,-19.56 275.44,-15.03 274.71,-21.99"/>
<text text-anchor="middle" x="198" y="-27.8" font-family="Times,serif" font-size="14.00">点</text>
</g>
<!-- 3 -->
<g id="node8" class="node">
<title>3</title>
<ellipse fill="none" stroke="black" cx="198" cy="-66" rx="18" ry="18"/>
<text text-anchor="middle" x="198" y="-62.3" font-family="Times,serif" font-size="14.00">3</text>
</g>
<!-- 0&#45;&gt;3 -->
<g id="edge5" class="edge">
<title>0&#45;&gt;3</title>
<path fill="none" stroke="black" d="M127.19,-66C139.34,-66 155.89,-66 169.82,-66"/>
<polygon fill="black" stroke="black" points="169.85,-69.5 179.85,-66 169.85,-62.5 169.85,-69.5"/>
<text text-anchor="middle" x="153.5" y="-69.8" font-family="Times,serif" font-size="14.00">+/&#45;</text>
</g>
<!-- 2&#45;&gt;4 -->
<g id="edge10" class="edge">
<title>2&#45;&gt;4</title>
<path fill="none" stroke="black" d="M321.19,-22C336.94,-22 360.64,-22 379.74,-22"/>
<polygon fill="black" stroke="black" points="379.8,-25.5 389.8,-22 379.8,-18.5 379.8,-25.5"/>
<text text-anchor="middle" x="357.5" y="-25.8" font-family="Times,serif" font-size="14.00">数字</text>
</g>
<!-- 3&#45;&gt;1 -->
<g id="edge11" class="edge">
<title>3&#45;&gt;1</title>
<path fill="none" stroke="black" d="M215.31,-71.65C228.41,-76.36 247.16,-83.48 263,-91 266.87,-92.84 270.88,-94.9 274.8,-97.01"/>
<polygon fill="black" stroke="black" points="273.2,-100.13 283.64,-101.94 276.6,-94.01 273.2,-100.13"/>
<text text-anchor="middle" x="248.5" y="-94.8" font-family="Times,serif" font-size="14.00">数字</text>
</g>
<!-- 3&#45;&gt;2 -->
<g id="edge12" class="edge">
<title>3&#45;&gt;2</title>
<path fill="none" stroke="black" d="M215.09,-59.12C231.57,-52.09 257.42,-41.04 276.65,-32.83"/>
<polygon fill="black" stroke="black" points="278.2,-35.97 286.02,-28.83 275.45,-29.54 278.2,-35.97"/>
<text text-anchor="middle" x="248.5" y="-54.8" font-family="Times,serif" font-size="14.00">点</text>
</g>
<!-- 5&#45;&gt;7 -->
<g id="edge17" class="edge">
<title>5&#45;&gt;7</title>
<path fill="none" stroke="black" d="M524.05,-92.91C540.37,-87.04 566.54,-78.56 590,-75 620.47,-70.38 655.7,-70.36 680.45,-71.21"/>
<polygon fill="black" stroke="black" points="680.56,-74.72 690.7,-71.63 680.85,-67.73 680.56,-74.72"/>
<text text-anchor="middle" x="608" y="-78.8" font-family="Times,serif" font-size="14.00">数字</text>
</g>
<!-- 6 -->
<g id="node10" class="node">
<title>6</title>
<ellipse fill="none" stroke="black" cx="608" cy="-117" rx="18" ry="18"/>
<text text-anchor="middle" x="608" y="-113.3" font-family="Times,serif" font-size="14.00">6</text>
</g>
<!-- 5&#45;&gt;6 -->
<g id="edge16" class="edge">
<title>5&#45;&gt;6</title>
<path fill="none" stroke="black" d="M524.79,-102.05C539.87,-104.79 562.27,-108.87 579.88,-112.07"/>
<polygon fill="black" stroke="black" points="579.66,-115.59 590.12,-113.93 580.91,-108.7 579.66,-115.59"/>
<text text-anchor="middle" x="557.5" y="-113.8" font-family="Times,serif" font-size="14.00">+/&#45;</text>
</g>
<!-- 6&#45;&gt;7 -->
<g id="edge18" class="edge">
<title>6&#45;&gt;7</title>
<path fill="none" stroke="black" d="M625.09,-110.12C640.61,-103.5 664.43,-93.32 683.21,-85.3"/>
<polygon fill="black" stroke="black" points="684.68,-88.47 692.51,-81.33 681.93,-82.04 684.68,-88.47"/>
<text text-anchor="middle" x="658.5" y="-104.8" font-family="Times,serif" font-size="14.00">数字</text>
</g>
</g>
</svg>
