<?xml version="1.0" encoding="UTF-8" standalone="no"?>
<!DOCTYPE svg PUBLIC "-//W3C//DTD SVG 1.1//EN"
 "http://www.w3.org/Graphics/SVG/1.1/DTD/svg11.dtd">
<!-- Generated by graphviz version 2.49.3 (0)
 -->
<!-- Pages: 1 -->
<svg width="445pt" height="412pt"
 viewBox="0.00 0.00 445.00 411.98" xmlns="http://www.w3.org/2000/svg" xmlns:xlink="http://www.w3.org/1999/xlink">
<g id="graph0" class="graph" transform="scale(1 1) rotate(0) translate(4 407.98)">
<polygon fill="white" stroke="transparent" points="-4,4 -4,-407.98 441,-407.98 441,4 -4,4"/>
<!-- 0 -->
<g id="node1" class="node">
<title>0</title>
<ellipse fill="none" stroke="black" cx="306" cy="-377.98" rx="26" ry="26"/>
<text text-anchor="middle" x="306" y="-374.28" font-family="Times,serif" font-size="14.00">F(5)</text>
</g>
<!-- 1 -->
<g id="node2" class="node">
<title>1</title>
<ellipse fill="none" stroke="black" cx="236" cy="-289.98" rx="26" ry="26"/>
<text text-anchor="middle" x="236" y="-286.28" font-family="Times,serif" font-size="14.00">F(4)</text>
</g>
<!-- 0&#45;&gt;1 -->
<g id="edge1" class="edge">
<title>0&#45;&gt;1</title>
<path fill="none" stroke="black" d="M289.76,-357.03C280.49,-345.64 268.71,-331.17 258.55,-318.69"/>
<polygon fill="black" stroke="black" points="261.17,-316.37 252.15,-310.82 255.74,-320.79 261.17,-316.37"/>
</g>
<!-- 2 -->
<g id="node3" class="node">
<title>2</title>
<ellipse fill="none" stroke="black" cx="341" cy="-289.98" rx="26" ry="26"/>
<text text-anchor="middle" x="341" y="-286.28" font-family="Times,serif" font-size="14.00">F(3)</text>
</g>
<!-- 0&#45;&gt;2 -->
<g id="edge2" class="edge">
<title>0&#45;&gt;2</title>
<path fill="none" stroke="black" d="M315.56,-353.48C319.27,-344.38 323.57,-333.8 327.58,-323.96"/>
<polygon fill="black" stroke="black" points="330.92,-325.04 331.45,-314.45 324.43,-322.4 330.92,-325.04"/>
</g>
<!-- 3 -->
<g id="node4" class="node">
<title>3</title>
<ellipse fill="none" stroke="black" cx="131" cy="-201.99" rx="26" ry="26"/>
<text text-anchor="middle" x="131" y="-198.29" font-family="Times,serif" font-size="14.00">F(3)</text>
</g>
<!-- 1&#45;&gt;3 -->
<g id="edge3" class="edge">
<title>1&#45;&gt;3</title>
<path fill="none" stroke="black" d="M216.25,-272.81C199.97,-259.48 176.69,-240.41 158.58,-225.58"/>
<polygon fill="black" stroke="black" points="160.61,-222.72 150.66,-219.09 156.18,-228.13 160.61,-222.72"/>
</g>
<!-- 4 -->
<g id="node5" class="node">
<title>4</title>
<ellipse fill="none" stroke="black" cx="236" cy="-201.99" rx="26" ry="26"/>
<text text-anchor="middle" x="236" y="-198.29" font-family="Times,serif" font-size="14.00">F(2)</text>
</g>
<!-- 1&#45;&gt;4 -->
<g id="edge4" class="edge">
<title>1&#45;&gt;4</title>
<path fill="none" stroke="black" d="M236,-263.65C236,-255.69 236,-246.75 236,-238.23"/>
<polygon fill="black" stroke="black" points="239.5,-238.14 236,-228.14 232.5,-238.14 239.5,-238.14"/>
</g>
<!-- 5 -->
<g id="node6" class="node">
<title>5</title>
<ellipse fill="none" stroke="black" cx="341" cy="-201.99" rx="26" ry="26"/>
<text text-anchor="middle" x="341" y="-198.29" font-family="Times,serif" font-size="14.00">F(2)</text>
</g>
<!-- 2&#45;&gt;5 -->
<g id="edge5" class="edge">
<title>2&#45;&gt;5</title>
<path fill="none" stroke="black" d="M341,-263.65C341,-255.69 341,-246.75 341,-238.23"/>
<polygon fill="black" stroke="black" points="344.5,-238.14 341,-228.14 337.5,-238.14 344.5,-238.14"/>
</g>
<!-- 6 -->
<g id="node7" class="node">
<title>6</title>
<ellipse fill="none" stroke="black" cx="411" cy="-201.99" rx="26" ry="26"/>
<text text-anchor="middle" x="411" y="-198.29" font-family="Times,serif" font-size="14.00">F(1)</text>
</g>
<!-- 2&#45;&gt;6 -->
<g id="edge6" class="edge">
<title>2&#45;&gt;6</title>
<path fill="none" stroke="black" d="M357.23,-269.04C366.51,-257.64 378.28,-243.18 388.45,-230.69"/>
<polygon fill="black" stroke="black" points="391.25,-232.79 394.85,-222.83 385.82,-228.37 391.25,-232.79"/>
</g>
<!-- 7 -->
<g id="node8" class="node">
<title>7</title>
<ellipse fill="none" stroke="black" cx="61" cy="-113.99" rx="26" ry="26"/>
<text text-anchor="middle" x="61" y="-110.29" font-family="Times,serif" font-size="14.00">F(2)</text>
</g>
<!-- 3&#45;&gt;7 -->
<g id="edge7" class="edge">
<title>3&#45;&gt;7</title>
<path fill="none" stroke="black" d="M114.76,-181.04C105.49,-169.65 93.71,-155.18 83.55,-142.7"/>
<polygon fill="black" stroke="black" points="86.17,-140.38 77.15,-134.83 80.74,-144.8 86.17,-140.38"/>
</g>
<!-- 8 -->
<g id="node9" class="node">
<title>8</title>
<ellipse fill="none" stroke="black" cx="131" cy="-113.99" rx="26" ry="26"/>
<text text-anchor="middle" x="131" y="-110.29" font-family="Times,serif" font-size="14.00">F(1)</text>
</g>
<!-- 3&#45;&gt;8 -->
<g id="edge8" class="edge">
<title>3&#45;&gt;8</title>
<path fill="none" stroke="black" d="M131,-175.65C131,-167.69 131,-158.75 131,-150.24"/>
<polygon fill="black" stroke="black" points="134.5,-150.15 131,-140.15 127.5,-150.15 134.5,-150.15"/>
</g>
<!-- 13 -->
<g id="node14" class="node">
<title>13</title>
<ellipse fill="none" stroke="black" cx="201" cy="-113.99" rx="26" ry="26"/>
<text text-anchor="middle" x="201" y="-110.29" font-family="Times,serif" font-size="14.00">F(0)</text>
</g>
<!-- 4&#45;&gt;13 -->
<g id="edge13" class="edge">
<title>4&#45;&gt;13</title>
<path fill="none" stroke="black" d="M226.43,-177.49C222.73,-168.39 218.42,-157.81 214.42,-147.97"/>
<polygon fill="black" stroke="black" points="217.56,-146.41 210.55,-138.46 211.08,-149.04 217.56,-146.41"/>
</g>
<!-- 14 -->
<g id="node15" class="node">
<title>14</title>
<ellipse fill="none" stroke="black" cx="271" cy="-113.99" rx="26" ry="26"/>
<text text-anchor="middle" x="271" y="-110.29" font-family="Times,serif" font-size="14.00">F(1)</text>
</g>
<!-- 4&#45;&gt;14 -->
<g id="edge14" class="edge">
<title>4&#45;&gt;14</title>
<path fill="none" stroke="black" d="M245.56,-177.49C249.27,-168.39 253.57,-157.81 257.58,-147.97"/>
<polygon fill="black" stroke="black" points="260.92,-149.04 261.45,-138.46 254.43,-146.41 260.92,-149.04"/>
</g>
<!-- 9 -->
<g id="node10" class="node">
<title>9</title>
<ellipse fill="none" stroke="black" cx="341" cy="-113.99" rx="26" ry="26"/>
<text text-anchor="middle" x="341" y="-110.29" font-family="Times,serif" font-size="14.00">F(0)</text>
</g>
<!-- 5&#45;&gt;9 -->
<g id="edge12" class="edge">
<title>5&#45;&gt;9</title>
<path fill="none" stroke="black" d="M341,-175.65C341,-167.69 341,-158.75 341,-150.24"/>
<polygon fill="black" stroke="black" points="344.5,-150.15 341,-140.15 337.5,-150.15 344.5,-150.15"/>
</g>
<!-- 12 -->
<g id="node13" class="node">
<title>12</title>
<ellipse fill="none" stroke="black" cx="411" cy="-113.99" rx="26" ry="26"/>
<text text-anchor="middle" x="411" y="-110.29" font-family="Times,serif" font-size="14.00">F(1)</text>
</g>
<!-- 5&#45;&gt;12 -->
<g id="edge11" class="edge">
<title>5&#45;&gt;12</title>
<path fill="none" stroke="black" d="M357.23,-181.04C366.51,-169.65 378.28,-155.18 388.45,-142.7"/>
<polygon fill="black" stroke="black" points="391.25,-144.8 394.85,-134.83 385.82,-140.38 391.25,-144.8"/>
</g>
<!-- 10 -->
<g id="node11" class="node">
<title>10</title>
<ellipse fill="none" stroke="black" cx="26" cy="-26" rx="26" ry="26"/>
<text text-anchor="middle" x="26" y="-22.3" font-family="Times,serif" font-size="14.00">F(1)</text>
</g>
<!-- 7&#45;&gt;10 -->
<g id="edge9" class="edge">
<title>7&#45;&gt;10</title>
<path fill="none" stroke="black" d="M51.43,-89.49C47.73,-80.39 43.42,-69.81 39.42,-59.98"/>
<polygon fill="black" stroke="black" points="42.56,-58.41 35.55,-50.47 36.08,-61.05 42.56,-58.41"/>
</g>
<!-- 11 -->
<g id="node12" class="node">
<title>11</title>
<ellipse fill="none" stroke="black" cx="96" cy="-26" rx="26" ry="26"/>
<text text-anchor="middle" x="96" y="-22.3" font-family="Times,serif" font-size="14.00">F(0)</text>
</g>
<!-- 7&#45;&gt;11 -->
<g id="edge10" class="edge">
<title>7&#45;&gt;11</title>
<path fill="none" stroke="black" d="M70.56,-89.49C74.27,-80.39 78.57,-69.81 82.58,-59.98"/>
<polygon fill="black" stroke="black" points="85.92,-61.05 86.45,-50.47 79.43,-58.41 85.92,-61.05"/>
</g>
</g>
</svg>
