<?xml version="1.0" encoding="UTF-8" standalone="no"?>
<svg
   width="229.81534pt"
   height="89pt"
   viewBox="0 0 229.40744 89.3"
   version="1.1"
   id="svg192"
   sodipodi:docname="figure-3.svg"
   inkscape:version="1.1.1 (1:1.1+202109281949+c3084ef5ed)"
   xmlns:inkscape="http://www.inkscape.org/namespaces/inkscape"
   xmlns:sodipodi="http://sodipodi.sourceforge.net/DTD/sodipodi-0.dtd"
   xmlns:xlink="http://www.w3.org/1999/xlink"
   xmlns="http://www.w3.org/2000/svg"
   xmlns:svg="http://www.w3.org/2000/svg"
   xmlns:rdf="http://www.w3.org/1999/02/22-rdf-syntax-ns#"
   xmlns:cc="http://creativecommons.org/ns#"
   xmlns:dc="http://purl.org/dc/elements/1.1/">
  <metadata
     id="metadata198">
    <rdf:RDF>
      <cc:Work
         rdf:about="">
        <dc:format>image/svg+xml</dc:format>
        <dc:type
           rdf:resource="http://purl.org/dc/dcmitype/StillImage" />
      </cc:Work>
    </rdf:RDF>
  </metadata>
  <defs
     id="defs196">
    <rect
       x="-28.786137"
       y="-95.255713"
       width="289.10156"
       height="140.70523"
       id="rect202" />
    <g
       id="g8864">
      <symbol
         overflow="visible"
         id="symbol9516">
        <path
           style="stroke:none;"
           d=""
           id="path4948" />
      </symbol>
      <symbol
         overflow="visible"
         id="symbol5585">
        <path
           style="stroke:none;"
           d="M 6.4375 -6.921875 C 6.4375 -6.953125 6.40625 -7.03125 6.3125 -7.03125 C 6.265625 -7.03125 6.265625 -7.015625 6.140625 -6.875 L 5.65625 -6.3125 C 5.40625 -6.78125 4.890625 -7.03125 4.234375 -7.03125 C 2.96875 -7.03125 1.78125 -5.875 1.78125 -4.671875 C 1.78125 -3.875 2.296875 -3.40625 2.8125 -3.265625 L 3.875 -2.984375 C 4.25 -2.890625 4.796875 -2.734375 4.796875 -1.921875 C 4.796875 -1.03125 3.984375 -0.09375 3 -0.09375 C 2.359375 -0.09375 1.25 -0.3125 1.25 -1.546875 C 1.25 -1.78125 1.3125 -2.03125 1.3125 -2.078125 C 1.328125 -2.125 1.328125 -2.140625 1.328125 -2.15625 C 1.328125 -2.25 1.265625 -2.265625 1.21875 -2.265625 C 1.171875 -2.265625 1.140625 -2.25 1.109375 -2.21875 C 1.078125 -2.1875 0.515625 0.09375 0.515625 0.125 C 0.515625 0.171875 0.5625 0.21875 0.625 0.21875 C 0.671875 0.21875 0.6875 0.203125 0.8125 0.0625 L 1.296875 -0.5 C 1.71875 0.078125 2.40625 0.21875 2.984375 0.21875 C 4.34375 0.21875 5.515625 -1.109375 5.515625 -2.34375 C 5.515625 -3.03125 5.171875 -3.375 5.03125 -3.515625 C 4.796875 -3.734375 4.640625 -3.78125 3.765625 -4 C 3.53125 -4.0625 3.1875 -4.171875 3.09375 -4.1875 C 2.828125 -4.28125 2.484375 -4.5625 2.484375 -5.09375 C 2.484375 -5.90625 3.28125 -6.75 4.234375 -6.75 C 5.046875 -6.75 5.65625 -6.3125 5.65625 -5.203125 C 5.65625 -4.890625 5.625 -4.703125 5.625 -4.640625 C 5.625 -4.640625 5.625 -4.546875 5.734375 -4.546875 C 5.84375 -4.546875 5.859375 -4.578125 5.890625 -4.75 Z M 6.4375 -6.921875 "
           id="path7216" />
      </symbol>
      <symbol
         overflow="visible"
         id="symbol884">
        <path
           style="stroke:none;"
           d=""
           id="path9620" />
      </symbol>
      <symbol
         overflow="visible"
         id="symbol2169">
        <path
           style="stroke:none;"
           d="M 2.328125 -4.4375 C 2.328125 -4.625 2.328125 -4.625 2.125 -4.625 C 1.671875 -4.1875 1.046875 -4.1875 0.765625 -4.1875 L 0.765625 -3.9375 C 0.921875 -3.9375 1.390625 -3.9375 1.765625 -4.125 L 1.765625 -0.578125 C 1.765625 -0.34375 1.765625 -0.25 1.078125 -0.25 L 0.8125 -0.25 L 0.8125 0 C 0.9375 0 1.796875 -0.03125 2.046875 -0.03125 C 2.265625 -0.03125 3.140625 0 3.296875 0 L 3.296875 -0.25 L 3.03125 -0.25 C 2.328125 -0.25 2.328125 -0.34375 2.328125 -0.578125 Z M 2.328125 -4.4375 "
           id="path5053" />
      </symbol>
    </g>
    <g
       id="g4535">
      <symbol
         overflow="visible"
         id="symbol1545">
        <path
           style="stroke:none;"
           d=""
           id="path6745" />
      </symbol>
      <symbol
         overflow="visible"
         id="symbol5259">
        <path
           style="stroke:none;"
           d="M 6.4375 -6.921875 C 6.4375 -6.953125 6.40625 -7.03125 6.3125 -7.03125 C 6.265625 -7.03125 6.265625 -7.015625 6.140625 -6.875 L 5.65625 -6.3125 C 5.40625 -6.78125 4.890625 -7.03125 4.234375 -7.03125 C 2.96875 -7.03125 1.78125 -5.875 1.78125 -4.671875 C 1.78125 -3.875 2.296875 -3.40625 2.8125 -3.265625 L 3.875 -2.984375 C 4.25 -2.890625 4.796875 -2.734375 4.796875 -1.921875 C 4.796875 -1.03125 3.984375 -0.09375 3 -0.09375 C 2.359375 -0.09375 1.25 -0.3125 1.25 -1.546875 C 1.25 -1.78125 1.3125 -2.03125 1.3125 -2.078125 C 1.328125 -2.125 1.328125 -2.140625 1.328125 -2.15625 C 1.328125 -2.25 1.265625 -2.265625 1.21875 -2.265625 C 1.171875 -2.265625 1.140625 -2.25 1.109375 -2.21875 C 1.078125 -2.1875 0.515625 0.09375 0.515625 0.125 C 0.515625 0.171875 0.5625 0.21875 0.625 0.21875 C 0.671875 0.21875 0.6875 0.203125 0.8125 0.0625 L 1.296875 -0.5 C 1.71875 0.078125 2.40625 0.21875 2.984375 0.21875 C 4.34375 0.21875 5.515625 -1.109375 5.515625 -2.34375 C 5.515625 -3.03125 5.171875 -3.375 5.03125 -3.515625 C 4.796875 -3.734375 4.640625 -3.78125 3.765625 -4 C 3.53125 -4.0625 3.1875 -4.171875 3.09375 -4.1875 C 2.828125 -4.28125 2.484375 -4.5625 2.484375 -5.09375 C 2.484375 -5.90625 3.28125 -6.75 4.234375 -6.75 C 5.046875 -6.75 5.65625 -6.3125 5.65625 -5.203125 C 5.65625 -4.890625 5.625 -4.703125 5.625 -4.640625 C 5.625 -4.640625 5.625 -4.546875 5.734375 -4.546875 C 5.84375 -4.546875 5.859375 -4.578125 5.890625 -4.75 Z M 6.4375 -6.921875 "
           id="path3200" />
      </symbol>
      <symbol
         overflow="visible"
         id="symbol1108">
        <path
           style="stroke:none;"
           d=""
           id="path8732" />
      </symbol>
      <symbol
         overflow="visible"
         id="symbol4328">
        <path
           style="stroke:none;"
           d="M 2.328125 -4.4375 C 2.328125 -4.625 2.328125 -4.625 2.125 -4.625 C 1.671875 -4.1875 1.046875 -4.1875 0.765625 -4.1875 L 0.765625 -3.9375 C 0.921875 -3.9375 1.390625 -3.9375 1.765625 -4.125 L 1.765625 -0.578125 C 1.765625 -0.34375 1.765625 -0.25 1.078125 -0.25 L 0.8125 -0.25 L 0.8125 0 C 0.9375 0 1.796875 -0.03125 2.046875 -0.03125 C 2.265625 -0.03125 3.140625 0 3.296875 0 L 3.296875 -0.25 L 3.03125 -0.25 C 2.328125 -0.25 2.328125 -0.34375 2.328125 -0.578125 Z M 2.328125 -4.4375 "
           id="path1122" />
      </symbol>
    </g>
    <g
       id="g1620">
      <symbol
         overflow="visible"
         id="symbol4771">
        <path
           style="stroke:none;"
           d=""
           id="path7535" />
      </symbol>
      <symbol
         overflow="visible"
         id="symbol2513">
        <path
           style="stroke:none;"
           d="M 6.4375 -6.921875 C 6.4375 -6.953125 6.40625 -7.03125 6.3125 -7.03125 C 6.265625 -7.03125 6.265625 -7.015625 6.140625 -6.875 L 5.65625 -6.3125 C 5.40625 -6.78125 4.890625 -7.03125 4.234375 -7.03125 C 2.96875 -7.03125 1.78125 -5.875 1.78125 -4.671875 C 1.78125 -3.875 2.296875 -3.40625 2.8125 -3.265625 L 3.875 -2.984375 C 4.25 -2.890625 4.796875 -2.734375 4.796875 -1.921875 C 4.796875 -1.03125 3.984375 -0.09375 3 -0.09375 C 2.359375 -0.09375 1.25 -0.3125 1.25 -1.546875 C 1.25 -1.78125 1.3125 -2.03125 1.3125 -2.078125 C 1.328125 -2.125 1.328125 -2.140625 1.328125 -2.15625 C 1.328125 -2.25 1.265625 -2.265625 1.21875 -2.265625 C 1.171875 -2.265625 1.140625 -2.25 1.109375 -2.21875 C 1.078125 -2.1875 0.515625 0.09375 0.515625 0.125 C 0.515625 0.171875 0.5625 0.21875 0.625 0.21875 C 0.671875 0.21875 0.6875 0.203125 0.8125 0.0625 L 1.296875 -0.5 C 1.71875 0.078125 2.40625 0.21875 2.984375 0.21875 C 4.34375 0.21875 5.515625 -1.109375 5.515625 -2.34375 C 5.515625 -3.03125 5.171875 -3.375 5.03125 -3.515625 C 4.796875 -3.734375 4.640625 -3.78125 3.765625 -4 C 3.53125 -4.0625 3.1875 -4.171875 3.09375 -4.1875 C 2.828125 -4.28125 2.484375 -4.5625 2.484375 -5.09375 C 2.484375 -5.90625 3.28125 -6.75 4.234375 -6.75 C 5.046875 -6.75 5.65625 -6.3125 5.65625 -5.203125 C 5.65625 -4.890625 5.625 -4.703125 5.625 -4.640625 C 5.625 -4.640625 5.625 -4.546875 5.734375 -4.546875 C 5.84375 -4.546875 5.859375 -4.578125 5.890625 -4.75 Z M 6.4375 -6.921875 "
           id="path8332" />
      </symbol>
      <symbol
         overflow="visible"
         id="symbol6681">
        <path
           style="stroke:none;"
           d=""
           id="path8125" />
      </symbol>
      <symbol
         overflow="visible"
         id="symbol7946">
        <path
           style="stroke:none;"
           d="M 3.515625 -1.265625 L 3.28125 -1.265625 C 3.265625 -1.109375 3.1875 -0.703125 3.09375 -0.640625 C 3.046875 -0.59375 2.515625 -0.59375 2.40625 -0.59375 L 1.125 -0.59375 C 1.859375 -1.234375 2.109375 -1.4375 2.515625 -1.765625 C 3.03125 -2.171875 3.515625 -2.609375 3.515625 -3.265625 C 3.515625 -4.109375 2.78125 -4.625 1.890625 -4.625 C 1.03125 -4.625 0.4375 -4.015625 0.4375 -3.375 C 0.4375 -3.03125 0.734375 -2.984375 0.8125 -2.984375 C 0.96875 -2.984375 1.171875 -3.109375 1.171875 -3.359375 C 1.171875 -3.484375 1.125 -3.734375 0.765625 -3.734375 C 0.984375 -4.21875 1.453125 -4.375 1.78125 -4.375 C 2.484375 -4.375 2.84375 -3.828125 2.84375 -3.265625 C 2.84375 -2.65625 2.40625 -2.1875 2.1875 -1.9375 L 0.515625 -0.265625 C 0.4375 -0.203125 0.4375 -0.1875 0.4375 0 L 3.3125 0 Z M 3.515625 -1.265625 "
           id="path759" />
      </symbol>
    </g>
  </defs>
  <sodipodi:namedview
     pagecolor="#ffffff"
     bordercolor="#666666"
     borderopacity="1"
     objecttolerance="10"
     gridtolerance="10"
     guidetolerance="10"
     inkscape:pageopacity="0"
     inkscape:pageshadow="2"
     inkscape:window-width="1848"
     inkscape:window-height="1016"
     id="namedview194"
     showgrid="false"
     inkscape:zoom="2.6769481"
     inkscape:cx="116.36385"
     inkscape:cy="76.766524"
     inkscape:window-x="72"
     inkscape:window-y="27"
     inkscape:window-maximized="1"
     inkscape:current-layer="edge2"
     inkscape:pagecheckerboard="0"
     inkscape:document-units="pt" />
  <g
     id="graph0"
     class="graph"
     transform="translate(3.40567, 85.3)">
    <title
       id="title123">finite_state_machine</title>
    <polygon
       fill="#ffffff"
       stroke="transparent"
       points="226.59,-85.3 226.59,4 -4,4 -4,-85.3 "
       id="polygon125" />
    <!-- 0 -->
    <g
       id="node1"
       class="node">
      <title
         id="title127">0</title>
      <circle
         fill="none"
         stroke="#000000"
         cx="115.15"
         cy="-24.15"
         id="ellipse129"
         r="20.27" />
      <circle
         fill="none"
         stroke="#000000"
         cx="115.15"
         cy="-24.15"
         id="ellipse131"
         r="24.299999" />
      <text
         xml:space="preserve"
         id="text200"
         style="fill:black;fill-opacity:1;line-height:1.25;stroke:none;font-family:sans-serif;font-style:normal;font-weight:normal;font-size:30.10112424px;white-space:pre;shape-inside:url(#rect202)" />
    </g>
    <!-- 0&#45;&gt;0 -->
    <g
       id="edge3"
       class="edge">
      <title
         id="title136">0-&gt;0</title>
      <path
         fill="none"
         stroke="#000000"
         d="m 107.4,-47.13 c -0.74,-10.28 1.84,-19.17 7.75,-19.17 3.78,0 6.2,3.65 7.26,8.98"
         id="path138" />
      <polygon
         fill="#000000"
         stroke="#000000"
         points="118.92,-56.95 125.91,-57.28 122.9,-47.13 "
         id="polygon140" />
      <text
         text-anchor="middle"
         x="115.15"
         y="-70.099998"
         font-family="Times, serif"
         font-size="14px"
         id="text142">1</text>
    </g>
    <!-- 1 -->
    <g
       id="node3"
       class="node">
      <title
         id="title145">1</title>
      <circle
         fill="none"
         stroke="#000000"
         cx="202.44"
         cy="-24.15"
         id="ellipse147"
         r="20.299999" />
      <g
         inkscape:label=""
         transform="translate(105.30419,-102.90338)"
         id="g766">
        <g
           id="g770">
          <g
             style="fill:#000000;fill-opacity:1"
             id="g890">
            <use
               xlink:href="#symbol2513"
               x="91.925003"
               y="81.962997"
               id="use2886"
               width="100%"
               height="100%" />
          </g>
          <g
             style="fill:#000000;fill-opacity:1"
             id="g6710">
            <use
               xlink:href="#symbol7946"
               x="98.033997"
               y="83.457001"
               id="use5288"
               width="100%"
               height="100%" />
          </g>
        </g>
      </g>
    </g>
    <!-- 0&#45;&gt;1 -->
    <g
       id="edge1"
       class="edge"
       transform="translate(-2.1572906,-23.987951)">
      <title
         id="title152">0-&gt;1</title>
      <text
         text-anchor="middle"
         x="160.8"
         y="-27.950001"
         font-family="Times, serif"
         font-size="14px"
         id="text158">0</text>
    </g>
    <!-- start -->
    <g
       id="node2"
       class="node">
      <title
         id="title161">start</title>
      <text
         text-anchor="middle"
         x="27"
         y="-20.450001"
         font-family="Times, serif"
         font-size="14px"
         id="text163">start</text>
    </g>
    <!-- start&#45;&gt;0 -->
    <g
       id="edge5"
       class="edge">
      <title
         id="title166">start-&gt;0</title>
      <path
         fill="none"
         stroke="#000000"
         d="m 54.32,-24.15 c 8.3,0 17.58,0 26.32,0"
         id="path168" />
      <polygon
         fill="#000000"
         stroke="#000000"
         points="80.91,-20.65 80.91,-27.65 90.91,-24.15 "
         id="polygon170" />
    </g>
    <!-- 1&#45;&gt;0 -->
    <g
       id="edge2"
       class="edge">
      <title
         id="title173">1-&gt;0</title>
      <path
         fill="none"
         stroke="#000000"
         d="m 185.09,-13.67 c -6.25,3.42 -13.61,6.79 -20.79,8.52 -6.42,1.55 -13.13,0.64 -19.42,-1.44"
         id="path175" />
      <polygon
         fill="#000000"
         stroke="#000000"
         points="146,-9.92 143.24,-3.48 135.42,-10.64 "
         id="polygon177" />
      <text
         text-anchor="middle"
         x="160.8"
         y="-8.9499998"
         font-family="Times, serif"
         font-size="14px"
         id="text179">0</text>
    </g>
    <!-- 1&#45;&gt;1 -->
    <g
       id="edge4"
       class="edge">
      <title
         id="title182">1-&gt;1</title>
      <path
         fill="none"
         stroke="#000000"
         d="m 195.25,-42.99 c -1.22,-10.1 1.18,-19.31 7.19,-19.31 3.86,0 6.23,3.78 7.11,9.15"
         id="path184" />
      <polygon
         fill="#000000"
         stroke="#000000"
         points="206.05,-52.96 213.05,-53.02 209.64,-42.99 "
         id="polygon186" />
      <text
         text-anchor="middle"
         x="202.44"
         y="-66.099998"
         font-family="Times, serif"
         font-size="14px"
         id="text188">1</text>
    </g>
    <g
       id="edge2-3"
       class="edge"
       transform="rotate(-178.73884,160.55903,-24.748846)">
      <title
         id="title173-6">1-&gt;0</title>
      <path
         fill="none"
         stroke="#000000"
         d="m 185.09,-13.67 c -6.25,3.42 -13.61,6.79 -20.79,8.52 -6.42,1.55 -13.13,0.64 -19.42,-1.44"
         id="path175-7" />
      <polygon
         fill="#000000"
         stroke="#000000"
         points="143.24,-3.48 135.42,-10.64 146,-9.92 "
         id="polygon177-5" />
    </g>
    <g
       inkscape:label=""
       transform="translate(18.194425,-102.90974)"
       id="g370">
      <g
         id="g2707">
        <g
           style="fill:#000000;fill-opacity:1"
           id="g4554">
          <use
             xlink:href="#symbol5259"
             x="91.925003"
             y="81.962997"
             id="use1059"
             width="100%"
             height="100%" />
        </g>
        <g
           style="fill:#000000;fill-opacity:1"
           id="g4097">
          <use
             xlink:href="#symbol4328"
             x="98.033997"
             y="83.457001"
             id="use5646"
             width="100%"
             height="100%" />
        </g>
      </g>
    </g>
  </g>
</svg>
